<svg width="1200" height="900" viewBox="0 0 1200 900" fill="none" xmlns="http://www.w3.org/2000/svg">
  <defs>
    <linearGradient id="bg" x1="0" y1="0" x2="1200" y2="900" gradientUnits="userSpaceOnUse">
      <stop stop-color="#0B1F3A" />
      <stop offset="1" stop-color="#134E4A" />
    </linearGradient>
    <linearGradient id="card" x1="0" y1="0" x2="0" y2="1">
      <stop stop-color="#1F2937" />
      <stop offset="1" stop-color="#111827" />
    </linearGradient>
    <linearGradient id="accent" x1="0" y1="0" x2="1" y2="1">
      <stop stop-color="#38BDF8" />
      <stop offset="1" stop-color="#22C55E" />
    </linearGradient>
  </defs>

  <rect width="1200" height="900" fill="url(#bg)" />

  <g opacity="0.2">
    <circle cx="1060" cy="120" r="210" fill="#38BDF8" />
    <circle cx="200" cy="860" r="260" fill="#22C55E" />
  </g>

  <rect x="130" y="120" width="940" height="660" rx="26" fill="#0F172A" fill-opacity="0.75" />
  <rect x="170" y="170" width="860" height="560" rx="20" fill="url(#card)" stroke="#334155" stroke-width="2" />

  <rect x="210" y="220" width="220" height="120" rx="14" fill="#0B1220" stroke="#334155" />
  <rect x="460" y="220" width="220" height="120" rx="14" fill="#0B1220" stroke="#334155" />
  <rect x="710" y="220" width="280" height="120" rx="14" fill="#0B1220" stroke="#334155" />

  <rect x="235" y="255" width="130" height="10" rx="5" fill="#475569" />
  <rect x="235" y="280" width="160" height="26" rx="8" fill="url(#accent)" />

  <rect x="485" y="255" width="120" height="10" rx="5" fill="#475569" />
  <rect x="485" y="280" width="145" height="26" rx="8" fill="url(#accent)" />

  <rect x="735" y="252" width="220" height="12" rx="6" fill="#475569" />
  <rect x="735" y="278" width="160" height="10" rx="5" fill="#64748B" />
  <rect x="735" y="300" width="190" height="10" rx="5" fill="#64748B" />

  <rect x="210" y="380" width="780" height="300" rx="16" fill="#0B1220" stroke="#334155" />

  <path d="M260 610L370 540L470 565L590 470L690 500L810 430L940 470"
        stroke="url(#accent)" stroke-width="8" stroke-linecap="round" stroke-linejoin="round" />
  <circle cx="370" cy="540" r="9" fill="#38BDF8" />
  <circle cx="590" cy="470" r="9" fill="#22C55E" />
  <circle cx="810" cy="430" r="9" fill="#38BDF8" />

  <rect x="260" y="430" width="12" height="180" rx="6" fill="#1E293B" />
  <rect x="350" y="500" width="12" height="110" rx="6" fill="#1E293B" />
  <rect x="440" y="530" width="12" height="80" rx="6" fill="#1E293B" />
  <rect x="530" y="470" width="12" height="140" rx="6" fill="#1E293B" />

  <rect x="825" y="560" width="145" height="84" rx="12" fill="#0F172A" stroke="#334155" />
  <path d="M850 600H900M850 620H920M850 580H935" stroke="#94A3B8" stroke-width="8" stroke-linecap="round" />
  <path d="M930 585L958 585M942 570L946 600" stroke="#38BDF8" stroke-width="8" stroke-linecap="round" />
</svg>
